<svg fill="currentColor" xmlns="http://www.w3.org/2000/svg">

	<symbol id="alert-circle" viewBox="0 0 24 24">
		<path fill-rule="evenodd" clip-rule="evenodd" d="M1 12C1 18.1 5.9 23 12 23C18.1 23 23 18.1 23 12C23 5.9 18.1 1 12 1C5.9 1 1 5.9 1 12ZM3 12C3 7 7 3 12 3C17 3 21 7 21 12C21 17 17 21 12 21C7 21 3 17 3 12ZM13 12V8C13 7.4 12.6 7 12 7C11.4 7 11 7.4 11 8V12C11 12.6 11.4 13 12 13C12.6 13 13 12.6 13 12ZM12.7 16.7L12.7 16.7C12.5 16.9 12.3 17 11.9 17C11.6 17 11.4 16.9 11.2 16.7C11 16.5 10.9 16.3 10.9 16C10.9 15.8828 10.9343 15.8 10.9627 15.7314C10.9828 15.6828 11 15.6414 11 15.6C11 15.5 11.1 15.4 11.2 15.3C11.5 15 11.9 14.9 12.3 15.1C12.35 15.1 12.375 15.125 12.4 15.15C12.425 15.175 12.45 15.2 12.5 15.2C12.6 15.2 12.7 15.3 12.7 15.3C12.75 15.35 12.775 15.4 12.8 15.45C12.825 15.5 12.85 15.55 12.9 15.6C13 15.7 13 15.9 13 16C13 16.05 12.975 16.125 12.95 16.2C12.925 16.275 12.9 16.35 12.9 16.4C12.9 16.5 12.8 16.6 12.7 16.7Z" />
	</symbol>

	<symbol id="arrow-left" viewBox="0 0 33 33">
		<path fill-rule="evenodd" clip-rule="evenodd" d="M5.78463 15.0727L15.2156 5.72981C15.7418 5.20855 16.5949 5.20855 17.121 5.72981C17.6472 6.25106 17.6472 7.09618 17.121 7.61743L9.98974 14.6821H25.5997C26.3438 14.6821 26.947 15.2797 26.947 16.0169C26.947 16.754 26.3438 17.3516 25.5997 17.3516H9.98974L17.121 24.4163C17.6472 24.9376 17.6472 25.7827 17.121 26.3039C16.5949 26.8252 15.7418 26.8252 15.2156 26.3039L5.78463 16.961L5.78427 16.9607M5.78142 16.9579C5.65366 16.8305 5.55715 16.6841 5.49188 16.5278ZM5.49188 15.506C5.42601 15.6633 5.38965 15.8359 5.38965 16.0169C5.38965 16.1979 5.42601 16.3704 5.49188 16.5278M5.49188 15.506C5.55715 15.3497 5.65366 15.2032 5.78142 15.0759ZM5.78142 15.0759C5.78249 15.0748 5.78356 15.0738 5.78463 15.0727Z" />
	</symbol>

	<symbol id="at-sign" viewBox="0 0 24 24">
		<path fill-rule="evenodd" clip-rule="evenodd" d="M4.2 4.2C6.3 2.1 9.1 1 12 1C18.1 1 23 5.9 23 12V13C23 15.2 21.2 17 19 17C17.6 17 16.4 16.3 15.7 15.3C14.8 16.3 13.5 17 12 17C9.2 17 7 14.8 7 12C7 9.2 9.2 7 12 7C14.8 7 17 9.2 17 12V13C17 14.1 17.9 15 19 15C20.1 15 21 14.1 21 13V12C21 7 17 3 12 3C9.6 3 7.3 3.9 5.6 5.6C3.9 7.3 3 9.6 3 12C3 17 7 21 12 21C14 21 15.9 20.3 17.5 19.1C17.9 18.8 18.6 18.9 18.9 19.3C19.2 19.7 19.1 20.4 18.7 20.7C16.8 22.2 14.4 23 12 23C5.9 23 1 18.1 1 12C1 9.1 2.1 6.3 4.2 4.2ZM9 12C9 13.7 10.3 15 12 15C13.7 15 15 13.7 15 12C15 10.3 13.7 9 12 9C10.3 9 9 10.3 9 12Z" />
	</symbol>

	<symbol id="bell" viewBox="0 0 20 20">
		<path fill-rule="evenodd" clip-rule="evenodd" d="M19.1667 14.1598C19.1667 14.6595 18.8333 14.9927 18.3333 14.9927H1.66667C1.16667 14.9927 0.833334 14.6595 0.833334 14.1598C0.833334 13.66 1.16667 13.3268 1.66667 13.3268C2.58333 13.3268 3.33333 12.5772 3.33333 11.661V7.49632C3.33333 3.83143 6.33333 0.832886 10 0.832886C13.6667 0.832886 16.6667 3.83143 16.6667 7.49632V11.661C16.6667 12.5772 17.4167 13.3268 18.3333 13.3268C18.8333 13.3268 19.1667 13.66 19.1667 14.1598ZM12.1667 17.9079C11.6667 18.7409 10.8333 19.1573 10 19.1573C9.58333 19.1573 9.16667 19.074 8.75 18.8242C8.33333 18.5743 8.08333 18.3244 7.83333 17.9079C7.58333 17.4915 7.75 16.9917 8.16667 16.7418C8.58333 16.492 9.08333 16.6585 9.33333 17.075C9.35857 17.1002 9.3838 17.1331 9.41134 17.1689C9.47477 17.2515 9.55046 17.3501 9.66667 17.4082C10.0833 17.6581 10.5833 17.4915 10.8333 17.075C11.0833 16.6585 11.5833 16.5752 12 16.7418C12.4167 16.9084 12.4167 17.4915 12.1667 17.9079ZM15 11.661C15 12.244 15.1667 12.8271 15.4167 13.3268H4.58333C4.83333 12.8271 5 12.244 5 11.661V7.49632C5 4.74765 7.25 2.49874 10 2.49874C12.75 2.49874 15 4.74765 15 7.49632V11.661Z" />
	</symbol>

	<symbol id="brands" viewBox="0 0 21 21">
		<path fill-rule="evenodd" clip-rule="evenodd" d="M0.875 10.5C0.875 5.1625 5.1625 0.875 10.5 0.875C15.8375 0.875 20.125 5.1625 20.125 10.5C20.125 15.8375 15.8375 20.125 10.5 20.125C5.1625 20.125 0.875 15.8375 0.875 10.5ZM2.625 10.5C2.625 14.875 6.125 18.375 10.5 18.375C14.875 18.375 18.375 14.875 18.375 10.5C18.375 6.125 14.875 2.625 10.5 2.625C6.125 2.625 2.625 6.125 2.625 10.5Z" />
		<path d="M7.94 14V7H10.82C11.44 7 11.97 7.1 12.41 7.3C12.8567 7.5 13.2 7.78667 13.44 8.16C13.68 8.53333 13.8 8.97667 13.8 9.49C13.8 10.0033 13.68 10.4467 13.44 10.82C13.2 11.1867 12.8567 11.47 12.41 11.67C11.97 11.8633 11.44 11.96 10.82 11.96H8.66L9.24 11.37V14H7.94ZM12.52 14L10.75 11.46H12.14L13.92 14H12.52ZM9.24 11.51L8.66 10.89H10.76C11.3333 10.89 11.7633 10.7667 12.05 10.52C12.3433 10.2733 12.49 9.93 12.49 9.49C12.49 9.04333 12.3433 8.7 12.05 8.46C11.7633 8.22 11.3333 8.1 10.76 8.1H8.66L9.24 7.46V11.51Z" />
	</symbol>

	<symbol id="briefcase" viewBox="0 0 24 24">
		<path fill-rule="evenodd" clip-rule="evenodd" d="M20 6H17V5C17 3.3 15.7 2 14 2H10C8.3 2 7 3.3 7 5V6H4C2.3 6 1 7.3 1 9V19C1 20.7 2.3 22 4 22H20C21.7 22 23 20.7 23 19V9C23 7.3 21.7 6 20 6ZM9 5C9 4.4 9.4 4 10 4H14C14.6 4 15 4.4 15 5V6H9V5ZM15 20V8H9V20H15ZM3 19V9C3 8.4 3.4 8 4 8H7V20H4C3.4 20 3 19.6 3 19ZM20 20C20.6 20 21 19.6 21 19V9C21 8.4 20.6 8 20 8H17V20H20Z" />
	</symbol>

	<symbol id="check" viewBox="0 0 24 24">
		<path d="M20.7 7.7L9.7 18.7C9.5 18.9 9.3 19 9 19C8.7 19 8.5 18.9 8.3 18.7L3.3 13.7C2.9 13.3 2.9 12.7 3.3 12.3C3.7 11.9 4.3 11.9 4.7 12.3L9 16.6L19.3 6.3C19.7 5.9 20.3 5.9 20.7 6.3C21.1 6.7 21.1 7.3 20.7 7.7Z" />
	</symbol>

	<symbol id="check-square" viewBox="0 0 24 24">
		<path fill-rule="evenodd" clip-rule="evenodd" d="M19 12C19 11.4 19.4 11 20 11C20.6 11 21 11.4 21 12V19C21 20.7 19.7 22 18 22H4C2.3 22 1 20.7 1 19V5C1 3.3 2.3 2 4 2H15C15.6 2 16 2.4 16 3C16 3.6 15.6 4 15 4H4C3.4 4 3 4.4 3 5V19C3 19.6 3.4 20 4 20H18C18.6 20 19 19.6 19 19V12ZM11.7 14.7L22.7 3.7C23.1 3.3 23.1 2.7 22.7 2.3C22.3 1.9 21.7 1.9 21.3 2.3L11 12.6L8.7 10.3C8.3 9.9 7.7 9.9 7.3 10.3C6.9 10.7 6.9 11.3 7.3 11.7L10.3 14.7C10.5 14.9 10.7 15 11 15C11.3 15 11.5 14.9 11.7 14.7Z" />
	</symbol>

	<symbol id="close" viewBox="0 0 16 16">
		<path d="M12.4666 11.5333C12.7333 11.8 12.7333 12.2 12.4666 12.4667C12.3333 12.6 12.1999 12.6667 11.9999 12.6667C11.7999 12.6667 11.6666 12.6 11.5333 12.4667L7.99992 8.93333L4.46659 12.4667C4.33325 12.6 4.19992 12.6667 3.99992 12.6667C3.79992 12.6667 3.66659 12.6 3.53325 12.4667C3.26659 12.2 3.26659 11.8 3.53325 11.5333L7.06659 8L3.53325 4.46666C3.26659 4.19999 3.26659 3.79999 3.53325 3.53333C3.79992 3.26666 4.19992 3.26666 4.46659 3.53333L7.99992 7.06666L11.5333 3.53333C11.7999 3.26666 12.1999 3.26666 12.4666 3.53333C12.7333 3.79999 12.7333 4.19999 12.4666 4.46666L8.93325 8L12.4666 11.5333Z" />
	</symbol>

	<symbol id="cloud" viewBox="0 0 25 24">
		<path fill-rule="evenodd" clip-rule="evenodd" d="M18.5 9.00001H19C22.3 9.00001 24.9 11.7 24.9 15C24.9 18.3 22.2 21 18.9 21H9.89997C5.79997 21 2.19998 18.2 1.19998 14.2C0.599975 11.9 0.999975 9.50001 2.19998 7.40001C3.49998 5.40001 5.39997 3.90001 7.79997 3.20001C10.1 2.60001 12.5 3.00001 14.6 4.20001C16.4 5.30001 17.8 7.00001 18.5 9.00001ZM9.99998 19H19C21.2 19 23 17.3 23 15.1C23 12.9 21.2 11.1 19 11.1H17.8C17.3 11.1 16.9 10.7 16.8 10.3C16 7.10001 13.1 5.00001 9.99998 5.00001C9.39997 5.00001 8.79997 5.10001 8.29997 5.20001C6.49998 5.60001 4.99998 6.70001 3.99998 8.40001C2.99998 10.1 2.69998 11.9 3.19998 13.8C3.99998 16.8 6.79998 19 9.99998 19Z" />
	</symbol>

	<symbol id="credit-card" viewBox="0 0 24 24">
		<path fill-rule="evenodd" clip-rule="evenodd" d="M21 3H3C1.3 3 0 4.3 0 6V18C0 19.7 1.3 21 3 21H21C22.7 21 24 19.7 24 18V6C24 4.3 22.7 3 21 3ZM3 5H21C21.6 5 22 5.4 22 6V9H2V6C2 5.4 2.4 5 3 5ZM3 19H21C21.6 19 22 18.6 22 18V11H2V18C2 18.6 2.4 19 3 19Z" />
	</symbol>

	<symbol id="down-caret" viewBox="0 0 24 24">
		<path d="M18.7 9.7L12.7 15.7C12.5 15.9 12.3 16 12 16C11.7 16 11.5 15.9 11.3 15.7L5.3 9.7C4.9 9.3 4.9 8.7 5.3 8.3C5.7 7.9 6.3 7.9 6.7 8.3L12 13.6L17.3 8.3C17.7 7.9 18.3 7.9 18.7 8.3C19.1 8.7 19.1 9.3 18.7 9.7Z" />
	</symbol>

	<symbol id="download" viewBox="0 0 24 24">
		<path fill-rule="evenodd" clip-rule="evenodd" d="M11.6 16.9C11.5 16.9 11.4 16.8 11.3 16.7L7.3 12.7C6.9 12.3 6.9 11.7 7.3 11.3C7.7 10.9 8.3 10.9 8.7 11.3L11 13.6V2C11 1.4 11.4 1 12 1C12.6 1 13 1.4 13 2V13.6L15.3 11.3C15.7 10.9 16.3 10.9 16.7 11.3C17.1 11.7 17.1 12.3 16.7 12.7L12.7 16.7C12.65 16.75 12.6 16.775 12.55 16.8C12.5 16.825 12.45 16.85 12.4 16.9C12.3 17 12.1 17 12 17C11.9 17 11.7 17 11.6 16.9ZM22 20V17C22 16.4 21.6 16 21 16C20.4 16 20 16.4 20 17V20C20 20.6 19.6 21 19 21H5C4.4 21 4 20.6 4 20V17C4 16.4 3.6 16 3 16C2.4 16 2 16.4 2 17V20C2 21.7 3.3 23 5 23H19C20.7 23 22 21.7 22 20Z" />
	</symbol>

	<symbol id="edit" viewBox="0 0 24 24">
		<path fill-rule="evenodd" clip-rule="evenodd" d="M22.7 6.7L12.7 16.7C12.5 16.9 12.3 17 12 17H8C7.4 17 7 16.6 7 16V12C7 11.7 7.1 11.5 7.3 11.3L17.3 1.3C17.7 0.9 18.3 0.9 18.7 1.3L22.7 5.3C23.1 5.7 23.1 6.3 22.7 6.7ZM21 14.7V20C21 21.7 19.7 23 18 23H4C2.3 23 1 21.7 1 20V6C1 4.3 2.3 3 4 3H9.3C9.9 3 10.3 3.4 10.3 4C10.3 4.6 9.9 5 9.3 5H4C3.4 5 3 5.4 3 6V20C3 20.6 3.4 21 4 21H18C18.6 21 19 20.6 19 20V14.7C19 14.1 19.4 13.7 20 13.7C20.6 13.7 21 14.1 21 14.7ZM18 3.4L20.6 6L11.6 15H9V12.4L18 3.4Z" />
	</symbol>

	<symbol id="edit-2" viewBox="0 0 24 24">
		<path fill-rule="evenodd" clip-rule="evenodd" d="M16.7 2.3L21.7 7.3C22.1 7.7 22.1 8.3 21.7 8.7L8.7 21.7C8.5 21.9 8.3 22 8 22H3C2.4 22 2 21.6 2 21V16C2 15.7 2.1 15.5 2.3 15.3L15.3 2.3C15.7 1.9 16.3 1.9 16.7 2.3ZM4 20H7.6L19.6 8L16 4.4L4 16.4V20Z" />
	</symbol>

	<symbol id="edit-3" viewBox="0 0 24 24">
		<path fill-rule="evenodd" clip-rule="evenodd" d="M3 18H7C7.3 18 7.5 17.9 7.7 17.7L18.7 6.7C19.1 6.3 19.1 5.7 18.7 5.3L14.7 1.3C14.3 0.9 13.7 0.9 13.3 1.3L2.3 12.3C2.1 12.5 2 12.7 2 13V17C2 17.6 2.4 18 3 18ZM4 13.4L14 3.4L16.6 6L6.6 16H4V13.4ZM21 23C21.6 23 22 22.6 22 22C22 21.4 21.6 21 21 21H3C2.4 21 2 21.4 2 22C2 22.6 2.4 23 3 23H21Z" />
	</symbol>

	<symbol id="filter" viewBox="0 0 24 24">
		<path fill-rule="evenodd" clip-rule="evenodd" d="M22.009 2C22.409 2 22.709 2.2 22.909 2.6C23.109 2.9 23.009 3.3 22.809 3.6L15.009 12.8V21C15.009 21.4 14.809 21.7 14.509 21.9C14.409 22 14.209 22 14.009 22C13.809 22 13.709 22 13.609 21.9L9.60902 19.9C9.20902 19.7 9.00902 19.4 9.00902 19V12.8L1.20902 3.6C1.00902 3.3 0.909017 2.9 1.10902 2.6C1.30902 2.2 1.60902 2 2.00902 2H22.009ZM13.009 12.5C13.009 12.2 13.109 12 13.209 11.8L19.909 4H4.20902L10.809 11.9C10.909 12 11.009 12.3 11.009 12.5V18.4L13.009 19.4V12.5Z" />
	</symbol>

	<symbol id="flag" viewBox="0 0 24 24">
		<path fill-rule="evenodd" clip-rule="evenodd" d="M19.3 2.3C19.6 2 20 1.9 20.4 2.1C20.8 2.3 21 2.6 21 3V15C21 15.3 20.9 15.5 20.7 15.7C20.5 15.9 19.2 17 16 17C14.4337 17 13.1221 16.4907 11.9087 16.0195C11.8051 15.9793 11.7023 15.9393 11.6 15.9C11.3699 15.8233 11.1434 15.7429 10.9185 15.663C9.97071 15.3266 9.05067 15 8 15C6.4 15 5.4 15.3 5 15.5V22C5 22.6 4.6 23 4 23C3.4 23 3 22.6 3 22V15V3C3 2.7 3.1 2.5 3.3 2.3C3.5 2.1 4.8 1 8 1C9.7 1 11.1 1.5 12.4 2.1C12.6301 2.17672 12.8566 2.25711 13.0815 2.33695C14.0293 2.6734 14.9493 3 16 3C18.4 3 19.3 2.3 19.3 2.3ZM16 15C17.6 15 18.6 14.7 19 14.5V4.6C18.3 4.8 17.3 5 16 5C14.3 5 12.9 4.5 11.6 3.9C11.3699 3.82328 11.1434 3.74289 10.9185 3.66305C9.97071 3.3266 9.05067 3 8 3C6.4 3 5.4 3.3 5 3.5V13.4C5.7 13.2 6.7 13 8 13C9.7 13 11.1 13.5 12.4 14.1C12.6301 14.1767 12.8566 14.2571 13.0815 14.337C14.0293 14.6734 14.9493 15 16 15Z" />
	</symbol>

	<symbol id="grid" viewBox="0 0 24 24">
		<path fill-rule="evenodd" clip-rule="evenodd" d="M3 2H10C10.6 2 11 2.4 11 3V10C11 10.6 10.6 11 10 11H3C2.4 11 2 10.6 2 10V3C2 2.4 2.4 2 3 2ZM4 9H9V4H4V9ZM21 2H14C13.4 2 13 2.4 13 3V10C13 10.6 13.4 11 14 11H21C21.6 11 22 10.6 22 10V3C22 2.4 21.6 2 21 2ZM15 9H20V4H15V9ZM21 13H14C13.4 13 13 13.4 13 14V21C13 21.6 13.4 22 14 22H21C21.6 22 22 21.6 22 21V14C22 13.4 21.6 13 21 13ZM15 20H20V15H15V20ZM10 13H3C2.4 13 2 13.4 2 14V21C2 21.6 2.4 22 3 22H10C10.6 22 11 21.6 11 21V14C11 13.4 10.6 13 10 13ZM4 20H9V15H4V20Z" />
	</symbol>

	<symbol id="heart" viewBox="0 0 24 24">
		<path fill-rule="evenodd" clip-rule="evenodd" d="M16.8975 2C18.5354 2 20.077 2.69307 21.2332 3.88119C22.4857 5.06931 23.1602 6.75248 22.9675 8.43564C22.9675 10.1188 22.293 11.802 21.1369 12.9901L12.6582 21.703C12.4655 21.901 12.2728 22 11.9837 22C11.6947 22 11.502 21.901 11.3093 21.703L2.83062 12.9901C1.67444 11.802 1 10.1188 1 8.43564C1 6.75248 1.67444 5.06931 2.92697 3.88119C5.33569 1.40594 9.28598 1.40594 11.6947 3.88119L12.0801 4.27723L12.4655 3.88119C13.6217 2.69307 15.2596 2 16.8975 2ZM12.0801 19.6238L19.8843 11.604C20.7515 10.7129 21.2332 9.62376 21.2332 8.43564C21.2332 7.24753 20.7515 6.15842 19.9807 5.26733C19.1135 4.47525 18.0537 3.9802 16.8975 3.9802C15.645 3.9802 14.5851 4.47525 13.718 5.26733L12.7545 6.35644C12.3691 6.75248 11.791 6.75248 11.4056 6.35644L10.3458 5.26733C9.47867 4.37624 8.41884 3.9802 7.26266 3.9802C6.20282 3.9802 5.04664 4.37624 4.27585 5.26733C3.50506 6.15842 3.02332 7.24753 3.02332 8.43564C3.02332 9.62376 3.40871 10.7129 4.27585 11.604L12.0801 19.6238Z" />
	</symbol>

	<symbol id="help" viewBox="0 0 24 24">
		<path fill-rule="evenodd" clip-rule="evenodd" d="M12 23C18.1 23 23 18.1 23 12C23 5.9 18.1 1 12 1C5.9 1 1 5.9 1 12C1 18.1 5.9 23 12 23ZM12.2 13.9C12.6 13.8 15.9 12.6 15.9 10C15.9 8.3 14.8 6.8 13.2 6.3C11.1 5.5 8.8 6.6 8.1 8.7C8 9.2 8.2 9.8 8.7 9.8C9.2 10 9.8 9.7 10 9.2C10.4 8.2 11.6 7.6 12.6 8C13.4 8.3 13.9 9 13.9 9.9C13.9 11 12.2 11.8 11.6 12C11.1 12.2 10.8 12.8 11 13.3C11.1 13.7 11.5 14 11.9 14C12 14 12.1 14 12.2 13.9ZM21 12C21 7 17 3 12 3C7 3 3 7 3 12C3 17 7 21 12 21C17 21 21 17 21 12ZM12.5 16.2C12.6 16.2 12.7 16.3 12.7 16.3C12.8 16.4 12.9 16.5 12.8 16.6C12.9 16.7 12.9 16.9 12.9 17C12.9 17.3 12.8 17.5 12.6 17.7C12.4 17.9 12.2 18 11.9 18C11.6 18 11.4 17.9 11.2 17.7C11 17.5 10.9 17.3 10.9 17C10.9 16.8828 10.9343 16.8 10.9627 16.7314C10.9828 16.6828 11 16.6414 11 16.6C11 16.5 11.1 16.4 11.2 16.3C11.3 16.2 11.4 16.1 11.5 16.1C11.7 16 11.9 16 12.1 16C12.1575 16.0575 12.1819 16.0819 12.2113 16.0923C12.2331 16.1 12.2575 16.1 12.3 16.1C12.35 16.1 12.375 16.125 12.4 16.15C12.425 16.175 12.45 16.2 12.5 16.2Z" />
	</symbol>

	<symbol id="home" viewBox="0 0 24 24">
		<path fill-rule="evenodd" clip-rule="evenodd" d="M21.6 8.2168L12.6 1.22474C12.2 0.925085 11.7 0.925085 11.4 1.22474L2.4 8.2168C2.1 8.41657 2 8.71623 2 9.01589V20.0034C2 21.7015 3.3 23 5 23H19C20.7 23 22 21.7015 22 20.0034V9.01589C22 8.71623 21.9 8.41657 21.6 8.2168ZM14 13.0114V21.0023H10V13.0114H14ZM19 21.0023C19.6 21.0023 20 20.6027 20 20.0034V9.51532L12 3.32236L4 9.51532V20.0034C4 20.6027 4.4 21.0023 5 21.0023H8V12.0125C8 11.4132 8.4 11.0136 9 11.0136H15C15.6 11.0136 16 11.4132 16 12.0125V21.0023H19Z" />
	</symbol>

	<symbol id="image" viewBox="2 2 20 20">
		<path fill-rule="evenodd" clip-rule="evenodd" d="M19 2H5C3.3 2 2 3.3 2 5V19C2 20.7 3.3 22 5 22H19C20.7 22 22 20.7 22 19V5C22 3.3 20.7 2 19 2ZM4 5C4 4.4 4.4 4 5 4H19C19.6 4 20 4.4 20 5V12.6L16.7 9.3C16.3 8.9 15.7 8.9 15.3 9.3L4.7 19.9C4.3 19.8 4 19.4 4 19V5ZM7.4 20H19C19.6 20 20 19.6 20 19V15.4L16 11.4L7.4 20ZM8.5 11C9.9 11 11 9.9 11 8.5C11 7.1 9.9 6 8.5 6C7.1 6 6 7.1 6 8.5C6 9.9 7.1 11 8.5 11ZM9 8.5C9 8.2 8.8 8 8.5 8C8.2 8 8 8.2 8 8.5C8 8.8 8.2 9 8.5 9C8.8 9 9 8.8 9 8.5Z" />
	</symbol>

	<symbol id="left-caret" viewBox="0 0 24 24">
		<path d="M15.7 17.3C16.1 17.7 16.1 18.3 15.7 18.7C15.5 18.9 15.3 19 15 19C14.7 19 14.5 18.9 14.3 18.7L8.3 12.7C7.9 12.3 7.9 11.7 8.3 11.3L14.3 5.3C14.7 4.9 15.3 4.9 15.7 5.3C16.1 5.7 16.1 6.3 15.7 6.7L10.4 12L15.7 17.3Z" />
	</symbol>

	<symbol id="link" viewBox="0 0 24 24">
		<path fill-rule="evenodd" clip-rule="evenodd" d="M17.6049 14.7719C17.9073 14.5713 18.1088 14.3706 18.3104 14.1699L21.3339 11.1596C23.6519 8.85177 23.5512 4.93843 21.0316 2.7309C18.7135 0.423033 14.9846 0.423033 12.6665 2.7309L10.9532 4.43672C10.5501 4.83808 10.5501 5.44014 10.9532 5.84151C11.3563 6.24287 11.961 6.24287 12.3642 5.84151L14.0775 4.13569C15.69 2.63056 18.1088 2.63056 19.7214 4.13569C21.3339 5.64082 21.3339 8.14937 19.8222 9.75485L16.7987 12.7651C16.6979 12.9658 16.5971 13.0661 16.3955 13.1665C14.5814 14.4709 12.0618 14.1699 10.7516 12.3637C10.4493 11.9624 9.7438 11.862 9.34067 12.1631C8.93753 12.4641 8.83675 13.1665 9.1391 13.5678C10.3485 15.1733 12.1626 15.9761 13.9767 15.9761C15.2869 15.9761 16.4963 15.5747 17.6049 14.7719ZM9.7438 19.7891L11.4571 18.0832C11.8603 17.6819 12.5657 17.7822 12.9689 18.1836C13.372 18.5849 13.372 19.187 12.9689 19.5884L11.2556 21.2942C10.0462 22.3979 8.5344 23 7.02264 23C5.51089 23 3.99913 22.3979 2.78973 21.2942C0.471707 18.9863 0.370924 15.1733 2.68895 12.7651L5.71246 9.75485L6.31716 9.15279C7.62735 8.14937 9.23988 7.748 10.7516 8.04903C12.2634 8.24971 13.6744 9.05245 14.6822 10.3569C14.9846 10.7583 14.8838 11.4607 14.4806 11.7617C14.0775 12.0627 13.372 11.9624 13.0697 11.561C12.465 10.6579 11.5579 10.1562 10.4493 9.95553C9.34067 9.85519 8.33283 10.1562 7.42578 10.7583L7.02264 11.1596L3.99913 14.1699C2.48738 15.675 2.48738 18.2839 4.09992 19.7891C5.71246 21.2942 8.13126 21.2942 9.7438 19.7891Z" />
	</symbol>

	<symbol id="list" viewBox="0 0 24 24">
		<path fill-rule="evenodd" clip-rule="evenodd" d="M2.3 5.30405C2.6 5.00405 3 4.90405 3.4 5.10405C3.5 5.10405 3.6 5.20405 3.7 5.30405C3.9 5.50405 4 5.70405 4 6.00405C4 6.30405 3.9 6.50405 3.7 6.70405C3.5 6.90405 3.3 7.00405 3 7.00405H2.8C2.7 6.90405 2.7 6.90405 2.6 6.90405C2.55 6.90405 2.525 6.87905 2.5 6.85405C2.475 6.82905 2.45 6.80405 2.4 6.80405L2.3 6.70405C2.25 6.65405 2.225 6.60405 2.2 6.55405C2.175 6.50405 2.15 6.45405 2.1 6.40405C2 6.30405 2 6.10405 2 6.00405C2 5.90405 2 5.70405 2.1 5.60405C2.1 5.50405 2.2 5.40405 2.3 5.30405L2.3 5.30405ZM8 5.00405C7.4 5.00405 7 5.40405 7 6.00405C7 6.60405 7.4 7.00405 8 7.00405H21C21.6 7.00405 22 6.60405 22 6.00405C22 5.40405 21.6 5.00405 21 5.00405H8ZM8 11.0041H21C21.6 11.0041 22 11.4041 22 12.0041C22 12.6041 21.6 13.0041 21 13.0041H8C7.4 13.0041 7 12.6041 7 12.0041C7 11.4041 7.4 11.0041 8 11.0041ZM21 17.0041H8C7.4 17.0041 7 17.4041 7 18.0041C7 18.6041 7.4 19.0041 8 19.0041H21C21.6 19.0041 22 18.6041 22 18.0041C22 17.4041 21.6 17.0041 21 17.0041ZM3.9 11.6041C3.9 11.5541 3.875 11.5291 3.85 11.5041C3.825 11.4791 3.8 11.4541 3.8 11.4041C3.8 11.3041 3.7 11.3041 3.7 11.3041C3.4 11.0041 3 10.9041 2.6 11.1041C2.55 11.1541 2.5 11.1791 2.45 11.2041C2.4 11.2291 2.35 11.2541 2.3 11.3041L2.2 11.4041C2.2 11.4541 2.175 11.4791 2.15 11.5041C2.125 11.5291 2.1 11.5541 2.1 11.6041C2.1 11.6465 2.1 11.671 2.09233 11.6927C2.08194 11.7221 2.0575 11.7465 2 11.8041V12.0041C2 12.3041 2.1 12.5041 2.3 12.7041C2.5 12.9041 2.7 13.0041 3 13.0041C3.3 13.0041 3.5 12.9041 3.7 12.7041C3.9 12.5041 4 12.3041 4 12.0041V11.8041C4 11.7541 3.975 11.7291 3.95 11.7041C3.925 11.6791 3.9 11.6541 3.9 11.6041ZM2.1 17.6041C2.1 17.5041 2.2 17.4041 2.3 17.3041C2.7 16.9041 3.3 16.9041 3.7 17.3041C3.9 17.5041 4 17.7041 4 18.0041C4 18.3041 3.9 18.5041 3.7 18.7041C3.5 18.9041 3.3 19.0041 3 19.0041C2.7 19.0041 2.5 18.9041 2.3 18.7041C2.1 18.5041 2 18.3041 2 18.0041C2 17.9041 2 17.7041 2.1 17.6041Z" />
	</symbol>

	<symbol id="loader" viewBox="0 0 24 24">
		<path d="M13 6V2C13 1.4 12.6 1 12 1C11.4 1 11 1.4 11 2V6C11 6.6 11.4 7 12 7C12.6 7 13 6.6 13 6ZM11 18C11 17.4 11.4 17 12 17C12.6 17 13 17.4 13 18V22C13 22.6 12.6 23 12 23C11.4 23 11 22.6 11 22V18ZM5.6 4.2C5.2 3.8 4.6 3.8 4.2 4.2C3.8 4.6 3.8 5.2 4.2 5.6L7 8.4C7.2 8.6 7.5 8.7 7.7 8.7C7.9 8.7 8.2 8.6 8.4 8.4C8.8 8 8.8 7.4 8.4 7L5.6 4.2ZM15.5 16.9C15.1 16.5 15.1 15.9 15.5 15.5C15.9 15.1 16.5 15.1 16.9 15.5L19.7 18.3C20.1 18.7 20.1 19.3 19.7 19.7C19.5 19.9 19.2 20 19 20C18.8 20 18.5 19.9 18.3 19.7L15.5 16.9ZM7 12C7 11.4 6.6 11 6 11H2C1.4 11 1 11.4 1 12C1 12.6 1.4 13 2 13H6C6.6 13 7 12.6 7 12ZM18 11H22C22.6 11 23 11.4 23 12C23 12.6 22.6 13 22 13H18C17.4 13 17 12.6 17 12C17 11.4 17.4 11 18 11ZM4.3 18.3C3.9 18.7 3.9 19.3 4.3 19.7C4.5 19.9 4.8 20 5 20C5.2 20 5.5 19.9 5.7 19.7L8.5 16.9C8.9 16.5 8.9 15.9 8.5 15.5C8.1 15.1 7.4 15.1 7.1 15.5L4.3 18.3ZM16.9 8.5C16.7 8.7 16.5 8.8 16.2 8.8C16 8.8 15.7 8.7 15.5 8.5C15.1 8.1 15.1 7.5 15.5 7.1L18.3 4.3C18.7 3.9 19.3 3.9 19.7 4.3C20.1 4.7 20.1 5.3 19.7 5.7L16.9 8.5Z" />
	</symbol>

	<symbol id="logout" viewBox="0 0 24 24">
		<path fill-rule="evenodd" clip-rule="evenodd" d="M10.01 23C10.6108 23 11.0113 22.6 11.0113 22C11.0113 21.4 10.6108 21 10.01 21H5.00375C4.403 21 4.0025 20.6 4.0025 20V4C4.0025 3.4 4.403 3 5.00375 3H10.01C10.6108 3 11.0113 2.6 11.0113 2C11.0113 1.4 10.6108 1 10.01 1H5.00375C3.30163 1 2 2.3 2 4V20C2 21.7 3.30163 23 5.00375 23H10.01ZM21.9249 11.6C22.025 11.9 22.025 12.2 21.9249 12.4C21.9249 12.5 21.8248 12.6 21.7247 12.7L17.7196 16.7C17.5194 16.9 17.219 17 17.0188 17C16.8185 17 16.5181 16.9 16.3179 16.7C15.9174 16.3 15.9174 15.7 16.3179 15.3L18.6208 13H9.00876C8.40801 13 8.00751 12.6 8.00751 12C8.00751 11.4 8.40801 11 9.00876 11H18.6208L16.3179 8.7C15.9174 8.3 15.9174 7.7 16.3179 7.3C16.7184 6.9 17.3191 6.9 17.7196 7.3L21.7247 11.3C21.7747 11.35 21.7998 11.4 21.8248 11.45C21.8498 11.5 21.8748 11.55 21.9249 11.6Z" />
	</symbol>

	<symbol id="mail" viewBox="0 0 24 24">
		<path fill-rule="evenodd" clip-rule="evenodd" d="M20 3H4C2.3 3 1 4.3 1 6V18C1 19.7 2.3 21 4 21H20C21.7 21 23 19.7 23 18V6C23 4.3 21.7 3 20 3ZM4 5H20C20.4 5 20.7 5.2 20.9 5.6L12 11.8L3.1 5.6C3.3 5.2 3.6 5 4 5ZM3 18C3 18.6 3.4 19 4 19H20C20.6 19 21 18.6 21 18V7.9L12.6 13.8C12.4 13.9 12.2 14 12 14C11.8 14 11.6 13.9 11.4 13.8L3 7.9V18Z" />
	</symbol>

	<symbol id="map-pin" viewBox="0 0 24 24">
		<path fill-rule="evenodd" clip-rule="evenodd" d="M2 10C2 4.5 6.5 0 12 0C17.5 0 22 4.5 22 10C22 17.4 12.9 23.6 12.6 23.8C12.4 23.9 12.2 24 12 24C11.8 24 11.6 23.9 11.4 23.8C11.1 23.6 2 17.4 2 10ZM4 10C4 15.4 10.1 20.4 12 21.8C13.9 20.4 20 15.4 20 10C20 5.6 16.4 2 12 2C7.6 2 4 5.6 4 10ZM12 6C9.8 6 8 7.8 8 10C8 12.2 9.8 14 12 14C14.2 14 16 12.2 16 10C16 7.8 14.2 6 12 6ZM10 10C10 11.1 10.9 12 12 12C13.1 12 14 11.1 14 10C14 8.9 13.1 8 12 8C10.9 8 10 8.9 10 10Z" />
	</symbol>

	<symbol id="menu" viewBox="0 0 24 24">
		<path fill-rule="evenodd" clip-rule="evenodd" d="M3 7H21C21.6 7 22 6.6 22 6C22 5.4 21.6 5 21 5H3C2.4 5 2 5.4 2 6C2 6.6 2.4 7 3 7ZM22 12C22 12.6 21.6 13 21 13H3C2.4 13 2 12.6 2 12C2 11.4 2.4 11 3 11H21C21.6 11 22 11.4 22 12ZM3 17H21C21.6 17 22 17.4 22 18C22 18.6 21.6 19 21 19H3C2.4 19 2 18.6 2 18C2 17.4 2.4 17 3 17Z" />
	</symbol>

	<symbol id="message-circle" viewBox="0 0 24 24">
		<path fill-rule="evenodd" clip-rule="evenodd" d="M13.0176 2C17.908 2.2 21.7006 6.1 22 10.9V11.4C22 12.9 21.7006 14.4 21.002 15.7C19.4051 18.9 16.1115 20.9 12.5186 20.9C11.1213 20.9 9.82388 20.6 8.62623 20.1L3.33661 21.9C3.2368 22 3.137 22 3.0372 22C2.73778 22 2.53817 21.9 2.23876 21.7C2.03915 21.5 1.93935 21.1 2.03915 20.7L3.83563 15.4C3.33661 14.2 3.0372 12.8 3.0372 11.5C3.0372 7.9 5.03328 4.6 8.32682 3C9.62428 2.3 11.0215 2 12.5186 2H13.0176ZM19.2055 14.9C19.7045 13.8 20.0039 12.7 20.0039 11.5V11C19.7045 7.2 16.7104 4.2 12.9178 4H12.5186C11.4208 4 10.2231 4.3 9.22506 4.8C6.63015 6.1 5.03328 8.6 5.03328 11.5C5.03328 12.6 5.33269 13.8 5.83171 14.8C6.03132 15.1 6.03132 15.3 5.93152 15.6L4.63406 19.4L8.42662 18.1C8.72604 18.1 9.02545 18.1 9.22506 18.2C10.2231 18.7 11.4208 19 12.5186 19C15.4129 19 17.908 17.5 19.2055 14.9Z" />
	</symbol>

	<symbol id="minus" viewBox="0 0 24 24">
		<path d="M20 12C20 12.6 19.6 13 19 13H5C4.4 13 4 12.6 4 12C4 11.4 4.4 11 5 11H19C19.6 11 20 11.4 20 12Z" />
	</symbol>

	<symbol id="more-vertical" viewBox="0 0 24 24">
		<path fill-rule="evenodd" clip-rule="evenodd" d="M12 7C13.1 7 14 6.1 14 5C14 3.9 13.1 3 12 3C10.9 3 10 3.9 10 5C10 6.1 10.9 7 12 7ZM14 12C14 13.1 13.1 14 12 14C10.9 14 10 13.1 10 12C10 10.9 10.9 10 12 10C13.1 10 14 10.9 14 12ZM10 19C10 17.9 10.9 17 12 17C13.1 17 14 17.9 14 19C14 20.1 13.1 21 12 21C10.9 21 10 20.1 10 19Z" />
	</symbol>

	<symbol id="new-file" viewBox="0 0 52 52">
		<path fill-rule="evenodd" clip-rule="evenodd" d="M45.2833 18.6333C45.175 18.525 45.1208 18.4166 45.0667 18.3083C45.0125 18.2 44.9583 18.0916 44.85 17.9833L29.6833 2.81663C29.4667 2.59996 29.25 2.38329 29.0333 2.38329C28.8167 2.16663 28.3833 2.16663 28.1667 2.16663H13C9.31667 2.16663 6.5 4.98329 6.5 8.66663V43.3333C6.5 47.0166 9.31667 49.8333 13 49.8333H39C42.6833 49.8333 45.5 47.0166 45.5 43.3333V19.5C45.5 19.2833 45.5 18.85 45.2833 18.6333ZM30.3333 9.53329L38.1333 17.3333H30.3333V9.53329ZM13 45.5H39C40.3 45.5 41.1667 44.6333 41.1667 43.3333V21.6666H28.1667C26.8667 21.6666 26 20.8 26 19.5V6.49996H13C11.7 6.49996 10.8333 7.36663 10.8333 8.66663V43.3333C10.8333 44.6333 11.7 45.5 13 45.5Z" />
	</symbol>

	<symbol id="package" viewBox="0 0 24 24">
		<path fill-rule="evenodd" clip-rule="evenodd" d="M21.3 5.2265L13.3 1.29487C12.5 0.901709 11.5 0.901709 10.6 1.29487L2.6 5.2265C1.6 5.71795 1 6.70085 1 7.78205V17.1197C1 18.2009 1.6 19.2821 2.7 19.7735L10.7 23.7051C11.1 23.9017 11.6 24 12 24C12.5 24 12.9 23.9017 13.3 23.7051L21.3 19.7735C22.3 19.2821 23 18.2991 23 17.1197V7.78205C23 6.70085 22.4 5.71795 21.3 5.2265ZM11.6 2.96581C11.7 2.86752 11.9 2.86752 12 2.86752C12.2 2.86752 12.3 2.86752 12.4 2.96581L19.8 6.60256L17 7.97863L9.2 4.1453L11.6 2.96581ZM3.5 18.1026L11 21.7393V12.1068L3 8.17521V17.2179C3 17.5128 3.2 17.906 3.5 18.1026ZM4.2 6.60256L7 5.2265L14.8 9.05983L12 10.4359L4.2 6.60256ZM20.4 18.1026C20.8 17.906 21 17.6111 21 17.2179V8.17521L13 12.1068V21.7393L20.4 18.1026Z" />
	</symbol>

	<symbol id="percent" viewBox="0 0 24 24">
		<path fill-rule="evenodd" clip-rule="evenodd" d="M3 6.5C3 4.6 4.6 3 6.5 3C8.4 3 10 4.6 10 6.5C10 8.4 8.4 10 6.5 10C4.6 10 3 8.4 3 6.5ZM19.7 5.7L5.7 19.7C5.5 19.9 5.3 20 5 20C4.7 20 4.5 19.9 4.3 19.7C3.9 19.3 3.9 18.7 4.3 18.3L18.3 4.3C18.7 3.9 19.3 3.9 19.7 4.3C20.1 4.7 20.1 5.3 19.7 5.7ZM6.5 8C5.7 8 5 7.3 5 6.5C5 5.7 5.7 5 6.5 5C7.3 5 8 5.7 8 6.5C8 7.3 7.3 8 6.5 8ZM21 17.5C21 19.4 19.4 21 17.5 21C15.6 21 14 19.4 14 17.5C14 15.6 15.6 14 17.5 14C19.4 14 21 15.6 21 17.5ZM17.5 16C18.3 16 19 16.7 19 17.5C19 18.3 18.3 19 17.5 19C16.7 19 16 18.3 16 17.5C16 16.7 16.7 16 17.5 16Z" />
	</symbol>

	<symbol id="phone-call" viewBox="0 0 24 24">
		<path fill-rule="evenodd" clip-rule="evenodd" d="M23.0414 10.4348C23.6698 10.3304 24.0887 9.8087 23.984 9.28696C23.4603 4.48696 19.5852 0.626087 14.6627 0C14.139 0 13.5106 0.417391 13.5106 0.93913C13.5106 1.46087 13.9295 1.98261 14.4532 2.08696C18.4331 2.6087 21.4704 5.63478 21.8893 9.49565C21.994 10.0174 22.413 10.4348 22.9366 10.4348H23.0414ZM17.4905 13.9826C18.3284 14.2957 19.271 14.5043 20.2136 14.6087C21.7846 14.8174 22.9366 16.1739 22.9366 17.7391V20.8696C22.9366 21.7043 22.5177 22.4348 21.994 23.0609C21.4704 23.687 20.6325 24 19.7946 24H19.4804C16.129 23.687 12.7775 22.5391 9.94968 20.6609C7.33134 18.9913 5.02721 16.6957 3.35147 14.087C1.571 11.2696 0.3142 7.93043 0 4.5913C0 3.75652 0.209467 2.92174 0.733134 2.29565C1.2568 1.66957 1.98994 1.25217 2.8278 1.14783H3.142H6.28401C7.85501 1.14783 9.21654 2.29565 9.42601 3.86087C9.53074 4.8 9.74021 5.73913 10.0544 6.57391C10.4733 7.72174 10.1591 9.07826 9.32128 9.91304L8.58814 10.6435C9.84494 12.6261 11.5207 14.1913 13.4059 15.4435L14.139 14.713C15.0816 13.8783 16.3384 13.5652 17.4905 13.9826ZM20.842 20.8696V17.7391C20.842 17.2174 20.423 16.8 20.0041 16.6957C18.9568 16.487 17.9094 16.2783 16.8621 15.8609C16.4432 15.6522 16.0242 15.7565 15.71 16.0696L14.3485 17.4261C14.0343 17.8435 13.5106 17.8435 13.0917 17.6348C10.2639 16.0696 7.95974 13.7739 6.38874 10.9565C6.17927 10.5391 6.28401 10.0174 6.59821 9.70435L7.95974 8.45217C8.16921 8.13913 8.27394 7.72174 8.16921 7.30435C7.75028 6.36522 7.43608 5.21739 7.33134 4.17391C7.22661 3.65217 6.80767 3.23478 6.28401 3.23478H3.142C2.8278 3.23478 2.5136 3.44348 2.30414 3.65217C2.1994 3.86087 2.09467 4.06957 2.09467 4.38261C2.40887 7.4087 3.4562 10.3304 5.13194 12.9391C6.70294 15.3391 8.69288 17.4261 11.1017 18.887C13.7201 20.5565 16.6526 21.6 19.6899 21.913C20.1088 21.913 20.3183 21.8087 20.5278 21.6C20.7372 21.3913 20.842 21.1826 20.842 20.8696ZM14.4532 6.36522C13.9295 6.26087 13.5106 5.73913 13.6153 5.11304C13.7201 4.5913 14.2437 4.17391 14.8722 4.27826C17.3858 4.8 19.3757 6.67826 19.7946 9.18261C19.8994 9.70435 19.5852 10.3304 18.9568 10.4348H18.7473C18.2236 10.4348 17.8047 10.1217 17.7 9.6C17.3858 7.93043 16.129 6.67826 14.4532 6.36522Z" />
	</symbol>

	<symbol id="plus" viewBox="0 0 24 24">
		<path d="M20 12C20 12.6 19.6 13 19 13H13V19C13 19.6 12.6 20 12 20C11.4 20 11 19.6 11 19V13H5C4.4 13 4 12.6 4 12C4 11.4 4.4 11 5 11H11V5C11 4.4 11.4 4 12 4C12.6 4 13 4.4 13 5V11H19C19.6 11 20 11.4 20 12Z" />
	</symbol>

	<symbol id="repeat" viewBox="0 0 24 24">
		<path fill-rule="evenodd" clip-rule="evenodd" d="M2 9V11C2 11.6 2.4 12 3 12C3.6 12 4 11.6 4 11V9C4 7.3 5.3 6 7 6H18.6L16.3 8.3C15.9 8.7 15.9 9.3 16.3 9.7C16.5 9.9 16.7 10 17 10C17.3 10 17.5 9.9 17.7 9.7L21.7 5.7C21.75 5.65 21.775 5.6 21.8 5.55C21.825 5.5 21.85 5.45 21.9 5.4C22 5.1 22 4.8 21.9 4.6C21.9 4.5 21.8 4.4 21.7 4.3L17.7 0.3C17.3 -0.1 16.7 -0.1 16.3 0.3C15.9 0.7 15.9 1.3 16.3 1.7L18.6 4H7C4.2 4 2 6.2 2 9ZM20 13C20 12.4 20.4 12 21 12C21.6 12 22 12.4 22 13V15C22 17.8 19.8 20 17 20H5.4L7.7 22.3C8.1 22.7 8.1 23.3 7.7 23.7C7.5 23.9 7.3 24 7 24C6.7 24 6.5 23.9 6.3 23.7L2.3 19.7C2.25 19.65 2.225 19.6 2.2 19.55C2.175 19.5 2.15 19.45 2.1 19.4C2 19.1 2 18.8 2.1 18.6C2.1 18.5 2.2 18.4 2.3 18.3L6.3 14.3C6.7 13.9 7.3 13.9 7.7 14.3C8.1 14.7 8.1 15.3 7.7 15.7L5.4 18H17C18.7 18 20 16.7 20 15V13Z" />
	</symbol>

	<symbol id="right-caret" viewBox="0 0 24 24">
		<path d="M15.7 12.7L9.7 18.7C9.5 18.9 9.3 19 9 19C8.7 19 8.5 18.9 8.3 18.7C7.9 18.3 7.9 17.7 8.3 17.3L13.6 12L8.3 6.7C7.9 6.3 7.9 5.7 8.3 5.3C8.7 4.9 9.3 4.9 9.7 5.3L15.7 11.3C16.1 11.7 16.1 12.3 15.7 12.7Z" />
	</symbol>

	<symbol id="search" viewBox="0 0 24 24">
		<path fill-rule="evenodd" clip-rule="evenodd" d="M17.2 15.8L21.7 20.3C22.1 20.7 22.1 21.3 21.7 21.7C21.5 21.9 21.2 22 21 22C20.8 22 20.5 21.9 20.3 21.7L15.8 17.2C14.3 18.3 12.5 19 10.5 19C5.8 19 2 15.2 2 10.5C2 5.8 5.8 2 10.5 2C15.2 2 19 5.8 19 10.5C19 12.5 18.3 14.4 17.2 15.8ZM10.5 4C6.9 4 4 6.9 4 10.5C4 14.1 6.9 17 10.5 17C12.3 17 13.9 16.3 15.1 15.1C16.3 13.9 17 12.3 17 10.5C17 6.9 14.1 4 10.5 4Z" />
	</symbol>

	<symbol id="send" viewBox="0 0 24 24">
		<path fill-rule="evenodd" clip-rule="evenodd" d="M23 2.89999C23 2.79999 23 2.69999 22.9 2.59999V2.49999C22.9 2.39999 22.8 2.29999 22.7 2.19999C22.65 2.14999 22.6 2.12499 22.55 2.09999C22.5 2.07499 22.45 2.04999 22.4 1.99999H22.3C22.2 1.99999 22.1 1.99999 22 1.89999V1.99999C21.9 1.99999 21.8 1.99999 21.7 2.09999L1.7 9.09999C1.3 9.19999 1 9.49999 1 9.99999C1 10.4 1.2 10.8 1.6 11L10.2 14.8L14 23.4C14.2 23.8 14.5 24 14.9 24C15.3 24 15.7 23.7 15.8 23.3L22.8 3.29999C23 3.19999 23 3.09999 23 2.89999ZM18.2 5.39999L10.8 12.8L4.7 10.1L18.2 5.39999ZM12.2 14.2L14.9 20.3L19.6 6.79999L12.2 14.2Z" />
	</symbol>

	<symbol id="settings" viewBox="0 0 24 24">
		<path fill-rule="evenodd" clip-rule="evenodd" d="M20.3 15.4C20.4 15.2 20.6 15 21 15C22.7 15 24 13.7 24 12C24 10.3 22.7 9 21 9H20.8C20.6 9 20.4 8.9 20.3 8.7C20.3 8.6 20.3 8.6 20.2 8.5C20.1 8.3 20.1 8 20.4 7.7C21.6 6.5 21.6 4.6 20.4 3.5C19.8 2.9 19.1 2.6 18.3 2.6C17.5 2.6 16.7 2.9 16.1 3.5C15.9 3.7 15.6 3.7 15.4 3.6C15.2 3.6 15 3.3 15 3C15 1.3 13.7 0 12 0C10.3 0 9 1.3 9 3V3.2C9 3.4 8.9 3.6 8.7 3.7C8.6575 3.7 8.63307 3.7 8.61134 3.70767C8.58194 3.71806 8.5575 3.7425 8.5 3.8C8.3 3.9 8 3.8 7.7 3.6C6.5 2.4 4.6 2.4 3.5 3.6C2.3 4.8 2.3 6.7 3.6 7.9C3.8 8.1 3.8 8.4 3.7 8.7C3.6 8.9 3.3 9.1 3 9.1C1.3 9.1 0 10.4 0 12.1C0 13.8 1.3 15.1 3 15.1H3.2C3.5 15.1 3.7 15.3 3.8 15.5C3.9 15.7 3.9 16 3.6 16.3C3 16.9 2.7 17.6 2.7 18.4C2.7 19.2 3 19.9 3.6 20.5C4.8 21.7 6.7 21.7 7.9 20.4C8.1 20.2 8.4 20.2 8.7 20.3C9 20.4 9.1 20.6 9.1 21C9.1 22.7 10.4 24 12.1 24C13.8 24 15.1 22.7 15.1 21V20.8C15.1 20.5 15.3 20.3 15.5 20.2C15.7 20.1 16 20.1 16.3 20.4C17.5 21.6 19.4 21.6 20.5 20.4C21.7 19.2 21.7 17.3 20.4 16.1C20.3 15.9 20.2 15.6 20.3 15.4ZM8 12C8 9.8 9.8 8 12 8C14.2 8 16 9.8 16 12C16 14.2 14.2 16 12 16C9.8 16 8 14.2 8 12ZM10 12C10 13.1 10.9 14 12 14C13.1 14 14 13.1 14 12C14 10.9 13.1 10 12 10C10.9 10 10 10.9 10 12ZM19.1 17.6C18.3 16.7 18.1 15.6 18.5 14.6C18.9 13.6 19.9 13 20.9 13C21.6 13 22 12.6 22 12C22 11.4 21.6 11 21 11H20.8C19.8 11 18.8 10.4 18.4 9.4C18.3 9.3 18.3 9.2 18.3 9.1C18 8.2 18.2 7.1 18.9 6.4C19.4 5.9 19.4 5.3 19 4.9C18.8 4.7 18.6 4.6 18.3 4.6C18 4.6 17.8 4.7 17.6 4.9C16.7 5.7 15.6 5.9 14.6 5.5C13.6 5.1 13 4.2 13 3.1C13 2.4 12.6 2 12 2C11.4 2 11 2.4 11 3V3.2C11 4.2 10.4 5.2 9.4 5.6C9.3 5.7 9.2 5.7 9.1 5.7C8.2 6 7.1 5.8 6.4 5.1C5.9 4.6 5.3 4.6 4.9 5C4.5 5.4 4.5 6 4.9 6.4C5.7 7.3 5.9 8.4 5.5 9.4C5.1 10.4 4.2 11.1 3.1 11.1H3C2.4 11.1 2 11.5 2 12.1C2 12.7 2.4 13.1 3 13.1H3.2C4.2 13.1 5.2 13.7 5.6 14.7C6.1 15.7 5.9 16.8 5.1 17.6C4.8 17.9 4.7 18.1 4.7 18.4C4.7 18.7 4.8 18.9 5 19.1C5.4 19.5 6 19.5 6.4 19.1C6.9 18.6 7.6 18.3 8.3 18.3C8.7 18.3 9.1 18.3 9.4 18.5C10.4 18.9 11.1 19.8 11.1 20.9V21C11.1 21.6 11.5 22 12.1 22C12.7 22 13.1 21.6 13.1 21V20.8C13.1 19.8 13.7 18.8 14.7 18.4C15.7 17.9 16.8 18.1 17.6 18.9C17.9 19.2 18.1 19.3 18.4 19.3C18.7 19.3 18.9 19.2 19.1 19C19.3 18.8 19.4 18.6 19.4 18.3C19.4 18 19.3 17.8 19.1 17.6Z" />
	</symbol>

	<symbol id="share" viewBox="0 0 24 24">
		<path fill-rule="evenodd" clip-rule="evenodd" d="M11 4.37884L8.7 6.68146C8.3 7.08191 7.7 7.08191 7.3 6.68146C6.9 6.281 6.9 5.68032 7.3 5.27986L11.3 1.27531C11.35 1.22526 11.4 1.20023 11.45 1.1752C11.5 1.15017 11.55 1.12514 11.6 1.07509C11.9 0.974972 12.2 0.974972 12.4 1.07509C12.5 1.07509 12.6 1.1752 12.7 1.27531L16.7 5.27986C17.1 5.68032 17.1 6.281 16.7 6.68146C16.5 6.88168 16.3 6.9818 16 6.9818C15.7 6.9818 15.5 6.88168 15.3 6.68146L13 4.37884V14.9909C13 15.5916 12.6 15.992 12 15.992C11.4 15.992 11 15.5916 11 14.9909V4.37884ZM21 19.9966V11.9875C21 11.3868 20.6 10.9863 20 10.9863C19.4 10.9863 19 11.3868 19 11.9875V19.9966C19 20.5973 18.6 20.9977 18 20.9977H6C5.4 20.9977 5 20.5973 5 19.9966V11.9875C5 11.3868 4.6 10.9863 4 10.9863C3.4 10.9863 3 11.3868 3 11.9875V19.9966C3 21.6985 4.3 23 6 23H18C19.7 23 21 21.6985 21 19.9966Z" />
	</symbol>

	<symbol id="share-2" viewBox="0 0 24 24">
		<path fill-rule="evenodd" clip-rule="evenodd" d="M15.2 16.2C15.9 15.5 16.9 15 18 15C20.2 15 22 16.8 22 19C22 21.2 20.2 23 18 23C15.8 23 14 21.2 14 19C14 18.8 14.025 18.625 14.05 18.45C14.075 18.275 14.1 18.1 14.1 17.9L8.8 14.8C8.1 15.5 7.1 16 6 16C3.8 16 2 14.2 2 12C2 9.8 3.8 8 6 8C7.1 8 8.1 8.5 8.8 9.2L14.2 6.1C14.1828 6.03137 14.1657 5.96569 14.149 5.90194C14.0686 5.59411 14 5.33137 14 5C14 2.8 15.8 1 18 1C20.2 1 22 2.8 22 5C22 7.2 20.2 9 18 9C16.9 9 15.9 8.5 15.1 7.8L9.8 10.9C9.81716 10.9686 9.83431 11.0343 9.85097 11.0981C9.93137 11.4059 10 11.6686 10 12C10 12.2 9.975 12.375 9.95 12.55L9.95 12.55C9.925 12.725 9.9 12.9 9.9 13.1L15.2 16.2ZM20 5C20 3.9 19.1 3 18 3C16.9 3 16 3.9 16 5C16 6.1 16.9 7 18 7C19.1 7 20 6.1 20 5ZM6 14C4.9 14 4 13.1 4 12C4 10.9 4.9 10 6 10C7.1 10 8 10.9 8 12C8 13.1 7.1 14 6 14ZM16 19C16 20.1 16.9 21 18 21C19.1 21 20 20.1 20 19C20 17.9 19.1 17 18 17C17.3 17 16.6 17.4 16.3 18C16.1 18.3 16 18.6 16 19Z" />
	</symbol>

	<symbol id="shield" viewBox="0 0 24 24">
		<path fill-rule="evenodd" clip-rule="evenodd" d="M12.2 1L20.2 3C20.7 3.1 21 3.5 21 4V12C21 18.5 12.8 22.7 12.4 22.9C12.3 23 12.2 23 12 23C11.8 23 11.7 23 11.6 22.9C11.2 22.7 3 18.5 3 12V4C3 3.5 3.3 3.1 3.7 3L11.7 1H12.2ZM12 20.9C13.6 19.9 19 16.5 19 12V4.8L12 3L5 4.8V12C5 16.6 10.4 20 12 20.9Z" />
	</symbol>

	<symbol id="shop" viewBox="0 0 18 18">
		<path d="M11.0253 17.0625H6.97531C3.27031 17.0625 1.69531 15.48 1.69531 11.7825V8.41504C1.69531 8.10754 1.95031 7.85254 2.25781 7.85254C2.56531 7.85254 2.82031 8.10754 2.82031 8.41504V11.7825C2.82031 14.85 3.90781 15.9375 6.97531 15.9375H11.0178C14.0853 15.9375 15.1728 14.85 15.1728 11.7825V8.41504C15.1728 8.10754 15.4278 7.85254 15.7353 7.85254C16.0428 7.85254 16.2978 8.10754 16.2978 8.41504V11.7825C16.3053 15.48 14.7228 17.0625 11.0253 17.0625Z" />
		<path d="M9.00025 9.5625C8.17525 9.5625 7.42524 9.24 6.89274 8.6475C6.36024 8.055 6.11275 7.2825 6.19525 6.4575L6.69775 1.4475C6.72775 1.1625 6.96775 0.9375 7.26025 0.9375H10.7627C11.0552 0.9375 11.2952 1.155 11.3252 1.4475L11.8277 6.4575C11.9102 7.2825 11.6627 8.055 11.1302 8.6475C10.5752 9.24 9.82524 9.5625 9.00025 9.5625ZM7.76275 2.0625L7.31274 6.57C7.26025 7.0725 7.41025 7.545 7.72525 7.89C8.36275 8.595 9.63774 8.595 10.2752 7.89C10.5902 7.5375 10.7402 7.065 10.6877 6.57L10.2377 2.0625H7.76275Z" />
		<path d="M13.732 9.5625C12.2095 9.5625 10.852 8.3325 10.6945 6.8175L10.1695 1.56C10.1545 1.4025 10.207 1.245 10.312 1.125C10.417 1.005 10.567 0.9375 10.732 0.9375H13.0195C15.2245 0.9375 16.252 1.86 16.5595 4.125L16.7695 6.21C16.8595 7.095 16.5895 7.935 16.012 8.5725C15.4345 9.21 14.6245 9.5625 13.732 9.5625ZM11.3545 2.0625L11.8195 6.705C11.917 7.6425 12.787 8.4375 13.732 8.4375C14.302 8.4375 14.812 8.22 15.1795 7.8225C15.5395 7.425 15.7045 6.8925 15.652 6.3225L15.442 4.26C15.2095 2.565 14.662 2.0625 13.0195 2.0625H11.3545Z" />
		<path d="M4.23026 9.5625C3.33776 9.5625 2.52776 9.21 1.95026 8.5725C1.37276 7.935 1.10276 7.095 1.19276 6.21L1.39526 4.1475C1.71026 1.86 2.73776 0.9375 4.94276 0.9375H7.23026C7.38776 0.9375 7.53776 1.005 7.65026 1.125C7.76276 1.245 7.80776 1.4025 7.79276 1.56L7.26776 6.8175C7.11026 8.3325 5.75276 9.5625 4.23026 9.5625ZM4.94276 2.0625C3.30026 2.0625 2.75276 2.5575 2.51276 4.275L2.31026 6.3225C2.25026 6.8925 2.42276 7.425 2.78276 7.8225C3.14276 8.22 3.65276 8.4375 4.23026 8.4375C5.17526 8.4375 6.05276 7.6425 6.14276 6.705L6.60776 2.0625H4.94276Z" />
		<path d="M10.875 17.0625H7.125C6.8175 17.0625 6.5625 16.8075 6.5625 16.5V14.625C6.5625 13.05 7.425 12.1875 9 12.1875C10.575 12.1875 11.4375 13.05 11.4375 14.625V16.5C11.4375 16.8075 11.1825 17.0625 10.875 17.0625ZM7.6875 15.9375H10.3125V14.625C10.3125 13.68 9.945 13.3125 9 13.3125C8.055 13.3125 7.6875 13.68 7.6875 14.625V15.9375Z" />
	</symbol>

	<symbol id="shopping-cart" viewBox="0 0 27 24">
		<path fill-rule="evenodd" clip-rule="evenodd" d="M4.18032 2H1C0.447715 2 0 1.55228 0 1C0 0.447715 0.447715 0 1 0H5C5.47663 0 5.88701 0.336385 5.98055 0.803743L6.82043 5H23C23.6274 5 24.0998 5.57104 23.9823 6.18733L22.3808 14.5848C22.0977 16.0102 20.8338 17.0277 19.4 17L9.69916 16.9998C8.24624 17.0277 6.98227 16.0102 6.69945 14.5863L5.02879 6.23921C5.02201 6.21159 5.01638 6.18353 5.01195 6.15508L4.18032 2ZM7 21.0016C7 22.2026 7.79935 23.0033 8.99837 23.0033C10.1974 23.0033 10.9967 22.2026 10.9967 21.0016C10.9967 19.8007 10.1974 19 8.99837 19C7.79935 19 7 19.8007 7 21.0016ZM18 21C18 22.2 18.7993 23 19.9984 23C21.1974 23 21.9967 22.2 21.9967 21C21.9967 19.8 21.1974 19 19.9984 19C18.7993 19 18 19.8 18 21ZM8.66084 14.1952L7.22073 7H21.7913L20.4177 14.2027C20.3248 14.6703 19.9035 15.0095 19.4192 15.0002L9.68 15C9.17653 15.0095 8.75521 14.6703 8.66084 14.1952Z" />
	</symbol>


	<symbol id="sliders" viewBox="0 0 24 24">
		<path fill-rule="evenodd" clip-rule="evenodd" d="M3 3V10C3 10.6 3.4 11 4 11C4.6 11 5 10.6 5 10V3C5 2.4 4.6 2 4 2C3.4 2 3 2.4 3 3ZM11 12C11 11.4 11.4 11 12 11C12.6 11 13 11.4 13 12V21C13 21.6 12.6 22 12 22C11.4 22 11 21.6 11 21V12ZM20 13C20.6 13 21 12.6 21 12V3C21 2.4 20.6 2 20 2C19.4 2 19 2.4 19 3V12C19 12.6 19.4 13 20 13ZM0 14C0 13.4 0.4 13 1 13H7C7.6 13 8 13.4 8 14C8 14.6 7.6 15 7 15H5V21C5 21.6 4.6 22 4 22C3.4 22 3 21.6 3 21V15H1C0.4 15 0 14.6 0 14ZM15 7H13V3C13 2.4 12.6 2 12 2C11.4 2 11 2.4 11 3V7H9C8.4 7 8 7.4 8 8C8 8.6 8.4 9 9 9H15C15.6 9 16 8.6 16 8C16 7.4 15.6 7 15 7ZM16 16C16 15.4 16.4 15 17 15H23C23.6 15 24 15.4 24 16C24 16.6 23.6 17 23 17H21V21C21 21.6 20.6 22 20 22C19.4 22 19 21.6 19 21V17H17C16.4 17 16 16.6 16 16Z" />
	</symbol>

	<symbol id="star" viewBox="0 0 18 19">
		<path d="M16.624 6.65999C16.923 6.73487 17.1472 6.88462 17.222 7.18414C17.2967 7.40877 17.222 7.70829 16.9977 7.85805L13.5595 11.2276L14.3817 16.0198C14.4564 16.3193 14.3069 16.6189 14.0827 16.7686C13.9332 16.8435 13.7837 16.9184 13.6342 16.9184H13.2605L9 14.672L4.73952 16.9184C4.44054 17.0681 4.14156 16.9932 3.91733 16.8435C3.69309 16.6937 3.5436 16.3942 3.61835 16.0947L4.44054 11.3025L1.00227 7.93292C0.778029 7.78317 0.703284 7.48365 0.778029 7.18414C0.92752 6.88462 1.15176 6.65999 1.45074 6.65999L6.15968 5.9112L8.32729 1.64311C8.55153 1.11896 9.44847 1.11896 9.67271 1.64311L11.8403 5.98608L16.624 6.65999Z" />
	</symbol>

	<symbol id="outline-star" viewBox="0 0 18 19">
		<path d="M16.624 6.65999C16.923 6.73487 17.1472 6.88462 17.222 7.18414C17.2967 7.40877 17.222 7.70829 16.9977 7.85805L13.5595 11.2276L14.3817 16.0198C14.4564 16.3193 14.3069 16.6189 14.0827 16.7686C13.9332 16.8435 13.7837 16.9184 13.6342 16.9184H13.2605L9 14.672L4.73952 16.9184C4.44054 17.0681 4.14156 16.9932 3.91733 16.8435C3.69309 16.6937 3.5436 16.3942 3.61835 16.0947L4.44054 11.3025L1.00227 7.93292C0.778029 7.78317 0.703284 7.48365 0.778029 7.18414C0.92752 6.88462 1.15176 6.65999 1.45074 6.65999L6.15968 5.9112L8.32729 1.64311C8.55153 1.11896 9.44847 1.11896 9.67271 1.64311L11.8403 5.98608L16.624 6.65999ZM11.9898 11.1527C11.9898 10.9281 12.0646 10.7034 12.214 10.4788L14.9049 7.85805L11.2424 7.33389C10.9434 7.33389 10.7191 7.18414 10.6444 6.9595L9 3.66484L7.35561 7.03438C7.20612 7.18414 6.98188 7.40877 6.75765 7.40877L3.09513 7.93292L5.78596 10.4788C5.93545 10.7034 6.01019 10.9281 6.01019 11.1527L5.33749 14.8218L8.62628 13.0996C8.85051 12.9498 9.07475 12.9498 9.29898 13.0996L12.5878 14.8218L11.9898 11.1527Z" />
	</symbol>

	<symbol id="target" viewBox="0 0 24 24">
		<path fill-rule="evenodd" clip-rule="evenodd" d="M1 12C1 5.9 5.9 1 12 1C18.1 1 23 5.9 23 12C23 18.1 18.1 23 12 23C5.9 23 1 18.1 1 12ZM3 12C3 17 7 21 12 21C17 21 21 17 21 12C21 7 17 3 12 3C7 3 3 7 3 12ZM12 5C8.1 5 5 8.1 5 12C5 15.9 8.1 19 12 19C15.9 19 19 15.9 19 12C19 8.1 15.9 5 12 5ZM7 12C7 14.8 9.2 17 12 17C14.8 17 17 14.8 17 12C17 9.2 14.8 7 12 7C9.2 7 7 9.2 7 12ZM12 9C10.3 9 9 10.3 9 12C9 13.7 10.3 15 12 15C13.7 15 15 13.7 15 12C15 10.3 13.7 9 12 9ZM11 12C11 12.6 11.4 13 12 13C12.6 13 13 12.6 13 12C13 11.4 12.6 11 12 11C11.4 11 11 11.4 11 12Z" />
	</symbol>

	<symbol id="truck" viewBox="0 0 24 24">
		<path fill-rule="evenodd" clip-rule="evenodd" d="M23.7 10.3L20.7 7.3C20.5 7.1 20.3 7 20 7H17V3C17 2.4 16.6 2 16 2H1C0.4 2 0 2.4 0 3V16C0 16.6 0.4 17 1 17H2.4C2.1 17.5 2 18 2 18.5C2 20.4 3.6 22 5.5 22C7.4 22 9 20.4 9 18.5C9 18 8.9 17.5 8.6 17H15.3C15.1 17.5 14.9 18 14.9 18.5C14.9 20.4 16.5 22 18.4 22C20.3 22 21.9 20.4 21.9 18.5C21.9 18 21.8 17.5 21.5 17H23C23.6 17 24 16.6 24 16V11C24 10.7 23.9 10.5 23.7 10.3ZM2 4H15V8V15H2V4ZM5.5 20C6.3 20 7 19.3 7 18.5C7 17.7 6.3 17 5.5 17C4.7 17 4 17.7 4 18.5C4 19.3 4.7 20 5.5 20ZM20 18.5C20 19.3 19.3 20 18.5 20C17.7 20 17 19.3 17 18.5C17 17.7 17.7 17 18.5 17C19.3 17 20 17.7 20 18.5ZM17 15H22V11.4L19.6 9H17V15Z" />
	</symbol>

	<symbol id="unlock" viewBox="0 0 24 24">
		<path fill-rule="evenodd" clip-rule="evenodd" d="M8 10H19C20.7 10 22 11.3 22 13V20C22 21.7 20.7 23 19 23H5C3.3 23 2 21.7 2 20V13C2 11.3 3.3 10 5 10H6V7C6 5.4 6.6 3.9 7.8 2.8C8.9 1.6 10.4 1 12 1C14.8 1 17.3 3 17.9 5.8C18 6.4 17.6 6.9 17.1 7C16.6 7.1 16 6.7 15.9 6.2C15.5 4.3 13.9 3 12 3C10.9 3 9.9 3.4 9.2 4.2C8.4 4.9 8 5.9 8 7V10ZM19 21C19.6 21 20 20.6 20 20V13C20 12.4 19.6 12 19 12H5C4.4 12 4 12.4 4 13V20C4 20.6 4.4 21 5 21H19Z" />
	</symbol>

	<symbol id="up-caret" viewBox="0 0 24 24">
		<path d="M18.7 15.7C18.5 15.9 18.3 16 18 16C17.7 16 17.5 15.9 17.3 15.7L12 10.4L6.7 15.7C6.3 16.1 5.7 16.1 5.3 15.7C4.9 15.3 4.9 14.7 5.3 14.3L11.3 8.3C11.7 7.9 12.3 7.9 12.7 8.3L18.7 14.3C19.1 14.7 19.1 15.3 18.7 15.7Z" />
	</symbol>

	<symbol id="upload" viewBox="0 0 24 24">
		<path fill-rule="evenodd" clip-rule="evenodd" d="M11 4.37884L8.7 6.68146C8.3 7.08191 7.7 7.08191 7.3 6.68146C6.9 6.281 6.9 5.68032 7.3 5.27986L11.3 1.27531C11.35 1.22526 11.4 1.20023 11.45 1.1752C11.5 1.15017 11.55 1.12514 11.6 1.07509C11.9 0.974972 12.2 0.974972 12.4 1.07509C12.5 1.07509 12.6 1.1752 12.7 1.27531L16.7 5.27986C17.1 5.68032 17.1 6.281 16.7 6.68146C16.5 6.88168 16.3 6.9818 16 6.9818C15.7 6.9818 15.5 6.88168 15.3 6.68146L13 4.37884V15.992C13 16.5927 12.6 16.9932 12 16.9932C11.4 16.9932 11 16.5927 11 15.992V4.37884ZM22 19.9966V16.9932C22 16.3925 21.6 15.992 21 15.992C20.4 15.992 20 16.3925 20 16.9932V19.9966C20 20.5973 19.6 20.9977 19 20.9977H5C4.4 20.9977 4 20.5973 4 19.9966V16.9932C4 16.3925 3.6 15.992 3 15.992C2.4 15.992 2 16.3925 2 16.9932V19.9966C2 21.6985 3.3 23 5 23H19C20.7 23 22 21.6985 22 19.9966Z" />
	</symbol>

	<symbol id="user" viewBox="0 0 24 24">
		<path fill-rule="evenodd" clip-rule="evenodd" d="M7 7C7 4.2 9.2 2 12 2C14.8 2 17 4.2 17 7C17 9.8 14.8 12 12 12C9.2 12 7 9.8 7 7ZM21 19V21C21 21.6 20.6 22 20 22C19.4 22 19 21.6 19 21V19C19 17.3 17.7 16 16 16H8C6.3 16 5 17.3 5 19V21C5 21.6 4.6 22 4 22C3.4 22 3 21.6 3 21V19C3 16.2 5.2 14 8 14H16C18.8 14 21 16.2 21 19ZM12 10C10.3 10 9 8.7 9 7C9 5.3 10.3 4 12 4C13.7 4 15 5.3 15 7C15 8.7 13.7 10 12 10Z" />
	</symbol>

	<symbol id="users" viewBox="0 0 24 24">
		<path fill-rule="evenodd" clip-rule="evenodd" d="M4.01594 7C4.01594 4.2 6.22471 2 9.03588 2C11.847 2 14.0558 4.2 14.0558 7C14.0558 9.8 11.847 12 9.03588 12C6.22471 12 4.01594 9.8 4.01594 7ZM18.0718 19V21C18.0718 21.6 17.6702 22 17.0678 22C16.4654 22 16.0638 21.6 16.0638 21V19C16.0638 17.3 14.7586 16 13.0518 16H5.01993C3.31315 16 2.00797 17.3 2.00797 19V21C2.00797 21.6 1.60638 22 1.00399 22C0.401594 22 0 21.6 0 21V19C0 16.2 2.20877 14 5.01993 14H13.0518C15.863 14 18.0718 16.2 18.0718 19ZM9.03588 10C7.3291 10 6.02392 8.7 6.02392 7C6.02392 5.3 7.3291 4 9.03588 4C10.7427 4 12.0478 5.3 12.0478 7C12.0478 8.7 10.7427 10 9.03588 10ZM20.2805 14.2C19.7785 14.1 19.1761 14.4 19.0757 14.9C18.9753 15.4 19.2765 16 19.7785 16.1C21.0837 16.4 21.9873 17.6 21.9873 19V21C21.9873 21.6 22.3889 22 22.9913 22C23.5937 22 23.9953 21.6 23.9953 21V19C24.0957 16.7 22.5897 14.7 20.2805 14.2ZM15.0598 2.9C15.2606 2.3 15.7626 2 16.2646 2.2C18.9753 2.8 20.5817 5.6 19.8789 8.4C19.4773 10.2 18.0718 11.5 16.2646 12H16.0638C15.5618 12 15.1602 11.7 15.0598 11.2C14.859 10.7 15.2606 10.1 15.7626 10C16.867 9.7 17.6702 8.9 17.9714 7.8C18.3729 6.1 17.369 4.5 15.7626 4.1C15.2606 4 14.9594 3.4 15.0598 2.9Z" />
	</symbol>

</svg>